<?xml version="1.0" encoding="utf-8"?>
<!-- Generator: Adobe Illustrator 16.0.0, SVG Export Plug-In . SVG Version: 6.00 Build 0)  -->
<!DOCTYPE svg PUBLIC "-//W3C//DTD SVG 1.1//EN" "http://www.w3.org/Graphics/SVG/1.1/DTD/svg11.dtd">
<svg version="1.1" id="Layer_1" xmlns="http://www.w3.org/2000/svg" xmlns:xlink="http://www.w3.org/1999/xlink" x="0px" y="0px"
	 width="612px" height="792px" viewBox="0 0 612 792" enable-background="new 0 0 612 792" xml:space="preserve">
<path fill-rule="evenodd" clip-rule="evenodd" fill="#FFFFFF" d="M253.458,382.072c3.252-20.725,6.505-41.457,9.757-62.182
	c1.352-9.193,1.245-21.415,5.768-29.663c3.725-6.792,19.808-12.624,27.458-8.228c2.668,1.533,6,2.831,7.493,5.505
	c2.083,8.563-1.021,18.596-2.4,27.143c-0.28,1.734-1.944,8.565,1.125,7.612c23.214-7.331,46.276-1.344,60.045,19.485
	c4.343,6.57,7.618,14.439,8.235,22.342c1.063,13.615-3.397,28.579-5.768,42.008c-3.85,24.79-7.7,49.587-11.55,74.377
	c-1.118,6.549-2.235,13.101-3.353,19.65c-0.583,1.692-1.165,3.385-1.748,5.078c-6.899,8.193-21.149,10.969-30.368,4.875
	c-1.447-1.395-2.895-2.791-4.342-4.185c-2.532-8.439,2.467-24.35,3.75-33.33c4.042-25.685,8.085-51.377,12.127-77.063
	c2.24-13.645,8.698-35.104-11.205-38.692c-9.864-1.779-23.049,5.59-25.643,15.675c-1.015,5.194-2.03,10.391-3.045,15.585
	c-6.107,37.969-12.215,75.949-18.322,113.917c-3.634,10.295-17.728,12.991-27.127,10.185c-2.792-0.833-8.349-2.893-9.18-6.052
	c-2.069-7.761,1.425-18.118,2.677-25.883c3.373-21.883,6.746-43.772,10.118-65.655C247.972,414.587,247.436,419.063,253.458,382.072
	z"/>
<path fill-rule="evenodd" clip-rule="evenodd" fill="#FFFFFF" d="M485.8,344.88c-2.26-3.03-4.52-6.06-6.77-9.08
	c-5.33-5.77-12.12-10.49-19.39-13.48c-29.88-12.3-67.03,9.41-80.15,36.5c-3.21,6.63-6.88,16.95-4.08,24.3
	c3.73,9.79,18.56,8.74,26.11,5.09c14.45-7.01,8.57-26.68,30.32-31.4c21.92-4.75,23.14,23.04,17.9,37.25
	c-1.3,3.52-13.88,2.71-17.22,2.66c-15.88-0.25-30.94,6.28-44.12,14.48c-5.68,3.54-15.34,15.18-18.85,21.13
	c-1.84,3.11-7.39,13.56-8.08,27.98c-1.22,25.57,13.59,48.29,39.87,52.16c26.68,3.92,52.08-10.61,67.35-32.04
	c8.12-11.41,8.98-24.96,11.1-38.36c1.84-11.99,3.69-23.99,5.53-35.99c0.88-4.96,1.76-9.93,2.65-14.89
	C490.87,374.83,492.96,360.4,485.8,344.88z M440.89,452.87c-0.66,4.16-1.33,8.55-3.73,12.12c-7.11,10.59-24.54,14.52-33.8,4.81
	c-11.69-12.25,1.91-32.02,16-34.29c5.71-0.92,16.53,1.29,21.21-1.29c0.44,0.36,0.88,0.71,1.33,1.07
	C443.95,435.97,441.26,450.53,440.89,452.87z"/>
<path fill-rule="evenodd" clip-rule="evenodd" fill="none" d="M440.89,452.87c-0.66,4.16-1.33,8.55-3.73,12.12
	c-7.11,10.59-24.54,14.52-33.8,4.81c-11.69-12.25,1.91-32.02,16-34.29c5.71-0.92,16.53,1.29,21.21-1.29
	c0.44,0.36,0.88,0.71,1.33,1.07C443.95,435.97,441.26,450.53,440.89,452.87z"/>
<path fill-rule="evenodd" clip-rule="evenodd" fill="#FFFFFF" d="M506.92,297.84c-0.463,3.12-1.804,10.375-2.183,12.72
	c-2.31,14.878-4.62,29.761-6.93,44.64c-3.877,24.79-7.755,49.587-11.633,74.377c-2.211,12.717-6.816,27.411-5.175,40.335
	c2.522,19.86,19.023,39.938,39.6,42.225c11.827,1.314,36.737,4.057,42.315-8.445c2.026-4.542,3.333-9.861,3.255-14.813
	c-0.39-2.24-0.78-4.48-1.17-6.72c-6.28-6.888-16.352-6.136-24.96-6.27c-2.56-0.23-5.12-0.46-7.68-0.69
	c-2.756-1.076-5.429-2.144-7.695-4.11c-1.275-1.51-2.55-3.02-3.825-4.53c-3.276-9.828-0.168-20.381,1.575-30.263
	c3.055-18.476,6.11-36.957,9.165-55.432c0.942-5.84,2.316-25.051,7.507-25.538c7.917-0.042,15.836-0.085,23.752-0.127
	c12.89-2.179,16.177-18.263,14.4-29.28c-2.051-2.051-3.396-4-6-5.52c-6.568,0-14.373-1.258-21.12-1.68
	c-3.32-0.208-9.144,0.734-8.88-3.345c0.701-8.413,5.508-20.652,1.38-28.65c-5.323-10.314-24.539-6.318-31.433,0.045
	C508.104,289.617,507.56,294.407,506.92,297.84z"/>
<path fill-rule="evenodd" clip-rule="evenodd" fill="#FFFFFF" d="M64.938,326.467c-3.288,14.016-6.114,30.019-8.498,43.853
	c-4.445,28.083-8.89,56.173-13.335,84.255c-0.33,4.552-0.66,9.105-0.99,13.657c0.215,2.083,0.43,4.165,0.645,6.248
	c1.86,6.427,4.044,12.488,7.965,17.978c10.038,14.053,29.267,23.529,46.755,20.663c4.72-1.12,9.44-2.24,14.16-3.36
	c7.236-1.573,14.183-7.104,20.4-10.8c8.827,3.734,15.773,10.121,25.23,12.803c21.883,6.206,45.877-5.349,61.808-19.853
	c14.723-13.404,17-31.046,20.19-49.605c4.212-26.868,8.425-53.743,12.637-80.61c1.488-10.089,2.975-20.181,4.463-30.27
	c0.223-4.688-1.368-11.667-13.905-12.255c-9.134-0.428-19.431,3.117-22.792,12.36c-1.77,10.449-3.54,20.901-5.31,31.35
	c-4.197,26.71-8.395,53.428-12.592,80.138c-2.022,13.753-4.192,26.286-19.133,31.35c-3.062,1.038-8.489,2.595-11.64,1.02
	c-17.921-8.961-12.405-19.96-9.743-36.203c4.205-26.63,8.411-53.268,12.615-79.897c1.63-10.11,6.172-28.567,3.772-32.888
	c-2.4-4.32-8.629-6.479-14.415-6.998c-8.095-0.725-18.544,2.58-21.585,10.688c-0.8,4.13-1.6,8.261-2.4,12.39
	c-1.373,8.557-2.745,17.116-4.118,25.672c-3.805,24.083-7.61,48.172-11.415,72.255c-2.398,16.52-6.657,37.769-28.837,35.265
	c-19.26-2.174-14.304-21.977-12.27-34.792c1.162-7.369,2.325-14.741,3.487-22.11c7.521-45.97,14.415-87.098,13.095-90.788
	c-0.933-2.608-2.297-3.862-4.583-5.663c-7.615-2.897-13.29-3.867-20.82-1.305C65.29,323.904,65.027,326.084,64.938,326.467z"/>
</svg>
